<?xml version="1.0" encoding="utf-8"?>
<!-- Designed by Vexels.com - 2020 All Rights Reserved - https://vexels.com/terms-and-conditions/  -->
<svg version="1.1" id="Layer_1" xmlns="http://www.w3.org/2000/svg" xmlns:xlink="http://www.w3.org/1999/xlink" x="0px" y="0px"
	 viewBox="0 0 1200 1200" enable-background="new 0 0 1200 1200" xml:space="preserve">
<g>
	<path fill="#08175B" d="M521.699,90.185c6.929-13.594,1.522-30.232-12.078-37.162c-13.589-6.929-30.243-1.522-37.162,12.078
		L344.836,315.616h62.019L521.699,90.185z"/>
	<path fill="#08175B" d="M714.923,65.474c-6.703-13.691-23.281-19.374-36.967-12.639c-13.708,6.724-19.363,23.276-12.639,36.978
		l110.773,225.803h61.547L714.923,65.474z"/>
	<path fill="#FF7F29" d="M137.595,599.439h-4.415c-40.918,0-71.776-43.972-71.776-102.289v-79.245
		c0-58.046,30.583-101.845,71.215-102.251h-0.658c-40.918,0-71.776,43.972-71.776,102.289v79.245
		c0,58.317,30.858,102.289,71.776,102.289h4.415l48.387,480.414c0.885,38.813,32.736,70.109,71.755,70.109h662.585
		c39.018,0,70.869-31.295,71.755-70.109l48.387-480.414h27.588c0.189,0,0.372-0.036,0.561-0.038h-26.929H137.595z M379.367,977.057
		c-0.594,0.059-1.187,0.092-1.781,0.092c-8.365,0-15.553-6.314-16.46-14.819l-25.602-239.862
		c-0.971-9.104,5.613-17.275,14.722-18.246c8.959-0.907,17.269,5.618,18.241,14.728l25.602,239.862
		C395.06,967.915,388.476,976.086,379.367,977.057z M617.188,960.57c0,9.158-7.426,16.579-16.579,16.579
		c-9.153,0-16.579-7.42-16.579-16.579V720.709c0-9.158,7.426-16.579,16.579-16.579c9.153,0,16.579,7.42,16.579,16.579V960.57z
		 M851.783,722.468L826.192,962.33c-0.907,8.505-8.095,14.819-16.46,14.819c-0.594,0-1.187-0.032-1.781-0.092
		c-9.099-0.971-15.694-9.142-14.722-18.246l25.591-239.862c0.971-9.11,9.304-15.645,18.241-14.728
		C846.16,705.193,852.754,713.364,851.783,722.468z"/>
	<path fill="#ED2F2F" d="M1068.05,315.616h-66.245h-12.029H837.636h-61.547H406.855h-62.019H211.605h-4.609H133.18
		c-0.189,0-0.37,0.036-0.561,0.038c-40.632,0.406-71.215,44.206-71.215,102.251v79.245c0,58.317,30.858,102.289,71.776,102.289
		h4.415h902.868h26.929h0.658c40.918,0,71.765-43.972,71.765-102.289v-79.245C1139.816,359.589,1108.968,315.616,1068.05,315.616z
		 M942.577,459.069H250.82c-17.364,0-31.455-8.61-31.455-19.222c0-10.613,14.091-19.222,31.455-19.222h691.757
		c17.364,0,31.452,8.61,31.452,19.222C974.029,450.46,959.941,459.069,942.577,459.069z"/>
	<path fill="#08175B" d="M600.61,704.13c-9.153,0-16.579,7.42-16.579,16.579V960.57c0,9.158,7.426,16.579,16.579,16.579
		c9.153,0,16.579-7.42,16.579-16.579V720.709C617.188,711.55,609.763,704.13,600.61,704.13z"/>
	<path fill="#08175B" d="M368.487,718.949c-0.971-9.11-9.282-15.634-18.241-14.728c-9.11,0.971-15.694,9.142-14.722,18.246
		l25.602,239.862c0.907,8.505,8.095,14.819,16.46,14.819c0.594,0,1.187-0.032,1.781-0.092c9.11-0.971,15.694-9.142,14.722-18.246
		L368.487,718.949z"/>
	<path fill="#08175B" d="M837.061,704.222c-8.937-0.917-17.269,5.618-18.241,14.728l-25.591,239.862
		c-0.971,9.104,5.623,17.275,14.722,18.246c0.594,0.059,1.187,0.092,1.781,0.092c8.365,0,15.553-6.314,16.46-14.819l25.591-239.862
		C852.754,713.364,846.16,705.193,837.061,704.222z"/>
	<path fill="#08175B" d="M942.577,420.625H250.82c-17.364,0-31.455,8.61-31.455,19.222c0,10.612,14.091,19.222,31.455,19.222
		h691.757c17.364,0,31.452-8.61,31.452-19.222C974.029,429.235,959.941,420.625,942.577,420.625z"/>
</g>
</svg>
